# 3ds Max Wavefront OBJ Exporter v0.97b - (c)2007 guruware
# File Created: 05.09.2017 12:51:18

mtllib soccerball.mtl

#
# object GeoSphere001
#

v  457624.6250 501878.8438 -236994.6875
v  266412.0625 453793.8750 -234583.0000
v  349922.7500 663254.5625 -201803.6250
v  89843.4063 405471.3750 -161311.9063
v  149316.3750 614039.2500 -168236.5625
v  245619.3125 796187.0000 -100167.1875
v  -48304.9063 363418.4063 -27047.9375
v  -30691.0625 559089.9375 -43859.4063
v  41574.1563 740344.8750 -15494.0625
v  158759.6406 882775.7500 54228.4844
v  574600.6875 645061.2500 -168469.9375
v  462272.8750 808265.6250 -101100.7188
v  664720.3125 762250.2500 -37988.5313
v  349762.7500 931612.2500 50618.9531
v  544185.8125 915868.8125 79463.9375
v  715848.1250 837665.3750 136879.2188
v  629948.6250 424356.4063 -180648.0000
v  746630.8750 565671.5000 -79617.8125
v  767963.0000 350560.4375 -60704.7500
v  824211.6875 676970.6250 100619.5625
v  872106.5000 485985.6563 90081.4063
v  853083.1250 290428.2500 106683.7969
v  439477.5313 306146.7188 -221508.0938
v  609417.3125 221513.7344 -133476.5313
v  412669.5313 130059.0000 -136922.7813
v  736983.3750 147071.1563 37043.2500
v  572160.8750 44779.4063 1685.3125
v  380810.5313 -2672.4063 5371.2500
v  240256.5938 251406.6250 -188245.9375
v  208624.3906 74216.8750 -52249.6563
v  58863.6875 201982.0938 -63563.9063
v  -80817.2500 229837.3125 114300.1094
v  -136165.1563 450542.1250 126478.1563
v  -51928.2188 126176.4375 279527.4688
v  -146048.2500 321367.2500 290819.2813
v  -155170.9375 537866.1875 302243.6563
v  34471.9688 66394.5938 446384.7813
v  -73891.6563 227089.3125 482644.4375
v  -121786.4688 418074.2813 493182.5938
v  -102763.1250 613631.6250 476580.1875
v  19610.7188 841257.7500 187622.8750
v  210081.7969 959467.5000 228482.9844
v  -71660.3125 747326.8750 335023.0313
v  82089.8750 893581.1250 380367.4375
v  283633.1563 967828.3750 411241.0938
v  13336.6563 756988.8125 546220.7500
v  178159.0781 859280.5625 581578.6875
v  369509.4375 906732.3750 577892.7500
v  629182.8125 925530.6250 290661.6250
v  802248.2500 777883.5000 303736.5625
v  508311.0625 949635.0000 444574.7500
v  695874.8125 843879.7500 471429.7813
v  831137.2500 674222.6250 468963.8750
v  541695.6250 829843.1250 635513.6250
v  691456.2500 702077.8750 646827.8750
v  798624.8750 540641.5625 610311.9375
v  905491.0000 366193.7500 281020.3125
v  821980.3125 156733.0313 248240.9375
v  886485.1875 453517.8125 456785.8438
v  847076.6250 240948.6875 438161.2813
v  730709.1875 62802.0625 395641.0938
v  781011.1250 344970.0000 627123.5000
v  708745.7500 163715.0000 598758.1250
v  591560.2500 21284.1875 529035.5000
v  466686.7500 -63768.3750 172022.9063
v  242008.9219 -45575.0000 138689.2656
v  540238.0625 -55407.5000 354781.0000
v  326739.5000 -81981.6250 326537.8438
v  121137.2344 -21470.6875 292602.3438
v  400557.1875 -27552.2813 532645.0000
v  206134.1719 -11808.8125 503800.0313
v  -96756.6250 663111.2500 145102.7188
v  423580.4375 986041.6250 256726.1250
v  896368.3125 582692.6875 292444.7188
v  668230.0625 10478.8438 202896.5625
v  54445.1875 60180.2813 111834.2188
v  292695.3750 402181.1563 820258.6875
v  310842.4375 597913.2500 804772.1250
v  120371.4063 479703.5625 763912.0000
v  337650.4375 774001.0000 720186.7500
v  140902.6875 682546.1875 716740.5000
v  -17643.0313 553499.5000 643968.7500
v  483907.9375 450266.1250 817847.0000
v  660476.6250 498588.5938 744575.8750
v  510063.3750 652653.3125 771509.8750
v  400397.1875 240805.4063 785067.6250
v  504700.5938 107872.9063 683431.1250
v  601003.5625 290020.7188 751500.6250
v  175719.3438 258998.7500 751733.9375
v  85599.7188 141809.7500 621252.5000
v  288047.0938 95794.3750 684364.7500
v  3689.1250 338388.4375 662881.8125
# 92 vertices

vn -0.0568 0.1764 -0.9827
vn -0.4015 0.0842 -0.9120
vn -0.2161 0.2345 -0.9478
vn -0.2542 0.4536 -0.8542
vn -0.6971 0.0012 -0.7169
vn -0.5917 0.1424 -0.7935
vn -0.6024 0.3523 -0.7162
vn -0.4450 0.5103 -0.7359
vn -0.3275 0.7335 -0.5956
vn -0.5206 0.6807 -0.5154
vn -0.4027 0.8016 -0.4418
vn 0.1641 0.3135 -0.9353
vn -0.0363 0.5888 -0.8074
vn 0.1667 0.4720 -0.8657
vn 0.3599 0.5568 -0.7486
vn -0.2289 0.8617 -0.4529
vn -0.0451 0.7585 -0.6501
vn 0.1486 0.8184 -0.5551
vn 0.3496 0.7266 -0.5915
vn 0.4910 0.7385 -0.4621
vn 0.3649 0.1423 -0.9201
vn 0.5415 0.2902 -0.7890
vn 0.6400 0.4050 -0.6530
vn 0.6961 0.2124 -0.6858
vn 0.5936 0.0822 -0.8005
vn 0.7381 0.0139 -0.6746
vn 0.6917 0.5673 -0.4469
vn 0.7803 0.3232 -0.5355
vn 0.8264 0.1393 -0.5456
vn 0.8654 -0.1254 -0.4851
vn 0.2680 -0.1007 -0.9581
vn 0.5600 -0.2410 -0.7927
vn 0.3466 -0.2456 -0.9053
vn 0.2241 -0.4495 -0.8647
vn 0.7686 -0.3683 -0.5231
vn 0.6348 -0.4110 -0.6543
vn 0.5018 -0.5897 -0.6328
vn 0.3003 -0.6186 -0.7261
vn 0.1708 -0.7393 -0.6514
vn 0.0074 -0.0796 -0.9968
vn -0.0330 -0.4287 -0.9029
vn -0.1049 -0.2090 -0.9723
vn -0.3382 -0.1683 -0.9259
vn -0.1335 -0.6486 -0.7493
vn -0.1523 -0.7880 -0.5965
vn -0.3119 -0.7019 -0.6404
vn -0.2701 -0.5554 -0.7865
vn -0.4570 -0.5943 -0.6617
vn -0.4755 -0.3210 -0.8190
vn -0.6329 -0.2548 -0.7311
vn -0.8951 -0.2025 -0.3973
vn -0.8977 -0.4265 -0.1106
vn -0.9462 -0.2244 -0.2333
vn -0.9953 -0.0372 -0.0891
vn -0.7903 -0.5785 0.2020
vn -0.8914 -0.4368 0.1206
vn -0.9728 -0.1409 0.1840
vn -0.8955 -0.2451 0.3716
vn -0.9247 -0.0655 0.3751
vn -0.9815 0.0283 0.1893
vn -0.9228 0.1208 0.3659
vn -0.5414 0.7762 -0.3232
vn -0.3611 0.8881 -0.2845
vn -0.6935 0.7199 0.0294
vn -0.5162 0.8540 -0.0645
vn -0.3575 0.9284 0.1014
vn -0.8073 0.5072 0.3017
vn -0.7049 0.6625 0.2534
vn -0.5447 0.7440 0.3869
vn -0.3704 0.8701 0.3252
vn -0.2095 0.8782 0.4299
vn 0.6505 0.7567 -0.0657
vn 0.4546 0.8626 0.2219
vn 0.6406 0.7604 0.1071
vn 0.7598 0.6022 0.2450
vn 0.3088 0.8291 0.4661
vn 0.1523 0.7880 0.5965
vn 0.3119 0.7019 0.6404
vn 0.4537 0.7444 0.4900
vn 0.4570 0.5943 0.6617
vn 0.6970 0.5490 0.4614
vn 0.7553 0.3807 0.5335
vn 0.8753 -0.4325 -0.2161
vn 0.9303 -0.3647 -0.0396
vn 0.8309 -0.5500 -0.0842
vn 0.9599 -0.1956 0.2010
vn 0.8806 -0.4653 0.0900
vn 0.7576 -0.6504 0.0546
vn 0.8591 -0.0335 0.5107
vn 0.8850 -0.2009 0.4200
vn 0.7823 -0.3881 0.4872
vn 0.7383 -0.5688 0.3624
vn 0.5970 -0.6908 0.4078
vn -0.0271 -0.9430 -0.3317
vn 0.1241 -0.9923 -0.0046
vn -0.0551 -0.9846 -0.1660
vn -0.2721 -0.9602 -0.0633
vn 0.2396 -0.9127 0.3311
vn 0.0912 -0.9704 0.2236
vn -0.1203 -0.9483 0.2935
vn -0.3034 -0.9384 0.1651
vn -0.4655 -0.8556 0.2265
vn -0.9281 0.3502 0.1268
vn -0.8126 0.5650 -0.1431
vn -0.9256 0.3760 -0.0444
vn -0.9599 0.1956 -0.2010
vn -0.7383 0.5688 -0.3624
vn -0.7823 0.3881 -0.4872
vn -0.8850 0.2009 -0.4200
vn -0.8591 0.0335 -0.5107
vn 0.0271 0.9430 0.3317
vn 0.2721 0.9602 0.0633
vn 0.0551 0.9846 0.1660
vn -0.1241 0.9923 0.0046
vn 0.4655 0.8556 -0.2265
vn 0.3034 0.9384 -0.1651
vn 0.1203 0.9483 -0.2935
vn -0.0912 0.9704 -0.2236
vn 0.8951 0.2025 0.3973
vn 0.9953 0.0372 0.0891
vn 0.9462 0.2244 0.2333
vn 0.8977 0.4265 0.1106
vn 0.9640 -0.1142 -0.2402
vn 0.9886 0.0492 -0.1420
vn 0.9405 0.2486 -0.2316
vn 0.8914 0.4368 -0.1206
vn 0.7903 0.5785 -0.2020
vn 0.4763 -0.8479 0.2329
vn 0.3575 -0.9284 -0.1014
vn 0.5162 -0.8540 0.0645
vn 0.7042 -0.6942 -0.1489
vn 0.2095 -0.8782 -0.4299
vn 0.3704 -0.8701 -0.3252
vn 0.5447 -0.7440 -0.3869
vn 0.7585 -0.5893 -0.2783
vn -0.6505 -0.7567 0.0657
vn -0.7598 -0.6022 -0.2450
vn -0.6406 -0.7604 -0.1071
vn -0.4546 -0.8626 -0.2219
vn -0.7553 -0.3807 -0.5335
vn -0.6970 -0.5490 -0.4614
vn -0.4537 -0.7444 -0.4900
vn -0.3088 -0.8291 -0.4661
vn -0.2680 0.1007 0.9581
vn -0.2241 0.4495 0.8647
vn -0.3466 0.2456 0.9053
vn -0.5600 0.2410 0.7927
vn -0.1708 0.7393 0.6514
vn -0.3003 0.6186 0.7261
vn -0.5018 0.5897 0.6328
vn -0.6348 0.4110 0.6543
vn -0.7686 0.3683 0.5231
vn -0.0074 0.0796 0.9968
vn 0.3382 0.1683 0.9259
vn 0.1049 0.2090 0.9723
vn 0.0330 0.4287 0.9029
vn 0.6329 0.2548 0.7311
vn 0.4755 0.3210 0.8190
vn 0.2701 0.5554 0.7865
vn 0.1335 0.6486 0.7493
vn -0.0542 -0.2471 0.9675
vn 0.0457 -0.3913 0.9191
vn 0.1386 -0.2068 0.9685
vn 0.1465 -0.5257 0.8379
vn 0.2352 -0.3366 0.9118
vn 0.4015 -0.0842 0.9120
vn 0.4350 -0.6585 0.6141
vn 0.4450 -0.5103 0.7359
vn 0.6024 -0.3523 0.7162
vn 0.5917 -0.1424 0.7935
vn 0.6971 -0.0012 0.7169
vn -0.1661 -0.3959 0.9032
vn -0.3599 -0.5568 0.7486
vn -0.0749 -0.5290 0.8453
vn -0.4910 -0.7385 0.4621
vn -0.3496 -0.7266 0.5915
vn -0.1486 -0.8184 0.5551
vn 0.0451 -0.7585 0.6501
vn 0.2141 -0.7956 0.5667
vn -0.3649 -0.1423 0.9201
vn -0.6555 0.0014 0.7552
vn -0.5145 -0.1753 0.8394
vn -0.5579 -0.3878 0.7337
vn -0.8402 0.0443 0.5405
vn -0.8248 -0.1241 0.5516
vn -0.7130 -0.4165 0.5641
vn -0.6917 -0.5673 0.4469
# 187 vertex normals

vt 0.6000 1.0000 537337.3750
vt 0.5000 0.8825 537337.3750
vt 0.7000 0.8825 537337.3750
vt 0.5000 0.7651 537337.3750
vt 0.6000 0.7981 537337.3750
vt 0.7000 0.7651 537337.3750
vt 0.5000 0.6476 537337.3750
vt 0.5656 0.6729 537337.3125
vt 0.6344 0.6729 537337.3750
vt 0.7000 0.6476 537337.3750
vt 0.8000 1.0000 537337.3750
vt 0.9000 0.8825 537337.3750
vt 0.8000 0.7981 537337.3750
vt 0.9000 0.7651 537337.3750
vt 0.7656 0.6729 537337.3750
vt 0.8344 0.6729 537337.3750
vt 0.9000 0.6476 537337.3750
vt 0.0000 1.0000 537337.3750
vt -0.1000 0.8825 537337.3750
vt 0.1000 0.8825 537337.3750
vt -0.1000 0.7651 537337.3750
vt 0.0000 0.7981 537337.3750
vt 0.1000 0.7651 537337.3750
vt 0.9656 0.6729 537337.3750
vt -0.0344 0.6729 537337.3750
vt 0.0344 0.6729 537337.3750
vt 0.1000 0.6476 537337.3750
vt 0.2000 1.0000 537337.3750
vt 0.3000 0.8825 537337.3750
vt 0.2000 0.7981 537337.3750
vt 0.3000 0.7651 537337.3750
vt 0.1656 0.6729 537337.3750
vt 0.2344 0.6729 537337.3750
vt 0.3000 0.6476 537337.3750
vt 0.4000 1.0000 537337.3750
vt 0.4000 0.7981 537337.4375
vt 0.3656 0.6729 537337.3750
vt 0.4344 0.6729 537337.3750
vt 0.4656 0.5499 537337.3750
vt 0.5344 0.5499 537337.3125
vt 0.4344 0.4501 537337.3750
vt 0.5000 0.4456 537337.3750
vt 0.5656 0.4501 537337.3125
vt 0.4000 0.3524 537337.3750
vt 0.4656 0.3271 537337.3750
vt 0.5344 0.3271 537337.3750
vt 0.6000 0.3524 537337.3750
vt 0.6656 0.5499 537337.3125
vt 0.7344 0.5499 537337.3125
vt 0.6344 0.4501 537337.3750
vt 0.7000 0.4456 537337.3750
vt 0.7656 0.4501 537337.3750
vt 0.6656 0.3271 537337.3750
vt 0.7344 0.3271 537337.3750
vt 0.8000 0.3524 537337.3750
vt 0.8656 0.5499 537337.3125
vt 0.9344 0.5499 537337.3750
vt 0.8344 0.4501 537337.3125
vt 0.9000 0.4456 537337.3750
vt 0.9656 0.4501 537337.3750
vt 0.8656 0.3271 537337.3125
vt 0.9344 0.3271 537337.3125
vt -0.0344 0.4501 537337.3750
vt -0.0656 0.3271 537337.3125
vt 0.0000 0.3524 537337.3750
vt 0.0656 0.5499 537337.3750
vt 0.1344 0.5499 537337.3750
vt 0.0344 0.4501 537337.3750
vt 0.1000 0.4456 537337.3750
vt 0.1656 0.4501 537337.3750
vt 0.0656 0.3271 537337.4375
vt 0.1344 0.3271 537337.3750
vt 0.2000 0.3524 537337.3750
vt 0.2656 0.5499 537337.3750
vt 0.3344 0.5499 537337.3125
vt 0.2344 0.4501 537337.3125
vt 0.3000 0.4456 537337.3125
vt 0.3656 0.4501 537337.3125
vt 0.2656 0.3271 537337.3750
vt 0.3344 0.3271 537337.3750
vt 0.6000 0.5544 537337.3750
vt 0.8000 0.5544 537337.3125
vt 0.0000 0.5544 537337.4375
vt -0.0656 0.5499 537337.3750
vt 0.2000 0.5544 537337.3750
vt 0.4000 0.5544 537337.3750
vt 0.7000 0.0000 537337.3750
vt 0.8000 0.1175 537337.3750
vt 0.6000 0.1175 537337.3750
vt 0.8000 0.2349 537337.3750
vt 0.7000 0.2019 537337.3125
vt 0.6000 0.2349 537337.3750
vt -0.1000 0.0000 537337.3750
vt 0.0000 0.1175 537337.3750
vt -0.2000 0.1175 537337.3750
vt 0.0000 0.2349 537337.3750
vt -0.1000 0.2019 537337.3750
vt 0.9000 0.2019 537337.3750
vt 0.1000 0.0000 537337.3750
vt 0.2000 0.1175 537337.3750
vt 0.2000 0.2349 537337.3750
vt 0.1000 0.2019 537337.3750
vt 0.3000 0.0000 537337.3750
vt 0.4000 0.1175 537337.3750
vt 0.4000 0.2349 537337.3750
vt 0.3000 0.2019 537337.3750
vt 0.5000 0.0000 537337.3750
vt 0.5000 0.2019 537337.3750
# 108 texture coords

g GeoSphere001
usemtl 02___Default
s off
f -92/-108/-187 -91/-107/-187 -90/-106/-187 
usemtl _crayfishdiffuse
f -91/-107/-186 -89/-105/-186 -88/-104/-186 
usemtl 02___Default
f -91/-107/-185 -88/-104/-185 -90/-106/-185 
f -90/-106/-184 -88/-104/-184 -87/-103/-184 
usemtl _crayfishdiffuse
f -89/-105/-183 -86/-102/-183 -85/-101/-183 
f -89/-105/-182 -85/-101/-182 -88/-104/-182 
f -88/-104/-181 -85/-101/-181 -84/-100/-181 
f -88/-104/-180 -84/-100/-180 -87/-103/-180 
s 1
f -87/-103/-179 -84/-100/-178 -83/-99/-177 
usemtl 02___Default
s off
f -92/-98/-176 -90/-106/-176 -82/-97/-176 
f -90/-106/-175 -87/-103/-175 -81/-96/-175 
f -90/-106/-174 -81/-96/-174 -82/-97/-174 
usemtl _crayfishdiffuse
f -82/-97/-173 -81/-96/-173 -80/-95/-173 
s 1
f -87/-103/-179 -83/-99/-177 -79/-94/-172 
s off
f -87/-103/-171 -79/-94/-171 -81/-96/-171 
f -81/-96/-170 -79/-94/-170 -78/-93/-170 
f -81/-96/-169 -78/-93/-169 -80/-95/-169 
f -80/-95/-168 -78/-93/-168 -77/-92/-168 
f -92/-91/-167 -82/-90/-167 -76/-89/-167 
s 1
f -82/-90/-166 -80/-88/-165 -75/-87/-164 
f -82/-90/-166 -75/-87/-164 -76/-89/-163 
f -76/-89/-163 -75/-87/-164 -74/-86/-162 
s off
f -80/-95/-161 -77/-92/-161 -73/-85/-161 
s 1
f -80/-88/-165 -73/-84/-160 -75/-87/-164 
usemtl 02___Default
f -75/-87/-164 -73/-84/-160 -72/-83/-159 
f -75/-87/-164 -72/-83/-159 -74/-86/-162 
s off
f -74/-86/-158 -72/-83/-158 -71/-82/-158 
usemtl _crayfishdiffuse
f -92/-81/-157 -76/-89/-157 -70/-80/-157 
f -76/-89/-156 -74/-86/-156 -69/-79/-156 
f -76/-89/-155 -69/-79/-155 -70/-80/-155 
f -70/-80/-154 -69/-79/-154 -68/-78/-154 
f -74/-86/-153 -71/-82/-153 -67/-77/-153 
f -74/-86/-152 -67/-77/-152 -69/-79/-152 
f -69/-79/-151 -67/-77/-151 -66/-76/-151 
f -69/-79/-150 -66/-76/-150 -68/-78/-150 
f -68/-78/-149 -66/-76/-149 -65/-75/-149 
f -92/-74/-148 -70/-80/-148 -91/-107/-148 
f -70/-80/-147 -68/-78/-147 -64/-73/-147 
f -70/-80/-146 -64/-73/-146 -91/-107/-146 
f -91/-107/-145 -64/-73/-145 -89/-105/-145 
usemtl 02___Default
s 1
f -68/-78/-144 -65/-75/-143 -63/-72/-142 
f -68/-78/-144 -63/-72/-142 -64/-73/-141 
f -64/-73/-141 -63/-72/-142 -62/-71/-140 
usemtl _crayfishdiffuse
s off
f -64/-73/-139 -62/-71/-139 -89/-105/-139 
f -89/-105/-138 -62/-71/-138 -86/-102/-138 
f -86/-102/-137 -61/-70/-137 -60/-69/-137 
f -61/-70/-136 -59/-68/-136 -58/-67/-136 
f -61/-70/-135 -58/-67/-135 -60/-69/-135 
usemtl 02___Default
f -60/-69/-134 -58/-67/-134 -57/-66/-134 
usemtl _crayfishdiffuse
f -59/-68/-133 -56/-65/-133 -55/-64/-133 
f -59/-68/-132 -55/-64/-132 -58/-67/-132 
s 1
f -58/-67/-131 -55/-64/-130 -54/-63/-129 
usemtl 02___Default
f -58/-67/-131 -54/-63/-129 -57/-66/-128 
f -57/-66/-128 -54/-63/-129 -53/-62/-127 
usemtl _crayfishdiffuse
f -83/-99/-177 -52/-61/-126 -51/-60/-125 
s off
f -52/-61/-124 -50/-59/-124 -49/-58/-124 
f -52/-61/-123 -49/-58/-123 -51/-60/-123 
f -51/-60/-122 -49/-58/-122 -48/-57/-122 
f -50/-59/-121 -53/-62/-121 -47/-56/-121 
f -50/-59/-120 -47/-56/-120 -49/-58/-120 
f -49/-58/-119 -47/-56/-119 -46/-55/-119 
f -49/-58/-118 -46/-55/-118 -48/-57/-118 
f -48/-57/-117 -46/-55/-117 -45/-54/-117 
f -77/-92/-116 -44/-53/-116 -43/-52/-116 
f -44/-53/-115 -42/-51/-115 -41/-50/-115 
f -44/-53/-114 -41/-50/-114 -43/-52/-114 
f -43/-52/-113 -41/-50/-113 -40/-49/-113 
usemtl 02___Default
s 1
f -42/-51/-112 -45/-54/-111 -39/-48/-110 
f -42/-51/-112 -39/-48/-110 -41/-50/-109 
f -41/-50/-109 -39/-48/-110 -38/-47/-108 
usemtl _crayfishdiffuse
s off
f -41/-50/-107 -38/-47/-107 -40/-49/-107 
f -40/-46/-106 -38/-45/-106 -37/-44/-106 
s 1
f -71/-82/-105 -36/-43/-104 -35/-42/-103 
s off
f -36/-43/-102 -34/-41/-102 -33/-40/-102 
s 1
f -36/-43/-104 -33/-40/-101 -35/-42/-103 
usemtl 02___Default
f -35/-42/-103 -33/-40/-101 -32/-39/-100 
usemtl _crayfishdiffuse
s off
f -34/-41/-99 -37/-44/-99 -31/-38/-99 
f -34/-41/-98 -31/-38/-98 -33/-40/-98 
f -33/-40/-97 -31/-38/-97 -30/-37/-97 
usemtl 02___Default
f -33/-40/-96 -30/-37/-96 -32/-39/-96 
f -32/-39/-95 -30/-37/-95 -29/-36/-95 
usemtl _crayfishdiffuse
f -65/-75/-94 -28/-35/-94 -27/-34/-94 
f -28/-35/-93 -26/-33/-93 -25/-32/-93 
f -28/-35/-92 -25/-32/-92 -27/-34/-92 
f -27/-34/-91 -25/-32/-91 -24/-31/-91 
f -26/-33/-90 -29/-36/-90 -23/-30/-90 
f -26/-33/-89 -23/-30/-89 -25/-32/-89 
f -25/-32/-88 -23/-30/-88 -22/-29/-88 
f -25/-32/-87 -22/-29/-87 -24/-31/-87 
f -24/-31/-86 -22/-29/-86 -56/-65/-86 
usemtl 02___Default
f -53/-62/-85 -50/-59/-85 -57/-66/-85 
usemtl _crayfishdiffuse
f -50/-59/-84 -52/-61/-84 -21/-28/-84 
usemtl 02___Default
f -50/-59/-83 -21/-28/-83 -57/-66/-83 
f -57/-66/-82 -21/-28/-82 -60/-69/-82 
usemtl _crayfishdiffuse
s 1
f -52/-61/-126 -83/-99/-177 -84/-100/-178 
s off
f -52/-61/-81 -84/-100/-81 -21/-28/-81 
f -21/-28/-80 -84/-100/-80 -85/-101/-80 
f -21/-28/-79 -85/-101/-79 -60/-69/-79 
f -60/-69/-78 -85/-101/-78 -86/-102/-78 
f -45/-54/-77 -42/-51/-77 -48/-57/-77 
f -42/-51/-76 -44/-53/-76 -20/-27/-76 
f -42/-51/-75 -20/-27/-75 -48/-57/-75 
f -48/-57/-74 -20/-27/-74 -51/-60/-74 
f -44/-53/-73 -77/-92/-73 -78/-93/-73 
f -44/-53/-72 -78/-93/-72 -20/-27/-72 
f -20/-27/-71 -78/-93/-71 -79/-94/-71 
f -20/-27/-70 -79/-94/-70 -51/-60/-70 
s 1
f -51/-60/-125 -79/-94/-172 -83/-99/-177 
s off
f -37/-44/-69 -34/-41/-69 -40/-46/-69 
f -34/-41/-68 -36/-43/-68 -19/-26/-68 
f -34/-41/-67 -19/-26/-67 -40/-46/-67 
f -40/-46/-66 -19/-26/-66 -43/-25/-66 
usemtl 02___Default
f -36/-43/-65 -71/-82/-65 -72/-83/-65 
f -36/-43/-64 -72/-83/-64 -19/-26/-64 
f -19/-26/-63 -72/-83/-63 -73/-84/-63 
usemtl _crayfishdiffuse
f -19/-26/-62 -73/-84/-62 -43/-25/-62 
f -43/-52/-61 -73/-85/-61 -77/-92/-61 
usemtl 02___Default
f -29/-36/-60 -26/-33/-60 -32/-39/-60 
usemtl _crayfishdiffuse
f -26/-33/-59 -28/-35/-59 -18/-24/-59 
usemtl 02___Default
f -26/-33/-58 -18/-24/-58 -32/-39/-58 
s 1
f -32/-39/-100 -18/-24/-57 -35/-42/-103 
usemtl _crayfishdiffuse
s off
f -28/-35/-56 -65/-75/-56 -66/-76/-56 
f -28/-35/-55 -66/-76/-55 -18/-24/-55 
f -18/-24/-54 -66/-76/-54 -67/-77/-54 
s 1
f -18/-24/-57 -67/-77/-53 -35/-42/-103 
f -35/-42/-103 -67/-77/-53 -71/-82/-105 
s off
f -56/-65/-52 -59/-68/-52 -24/-31/-52 
f -59/-68/-51 -61/-70/-51 -17/-23/-51 
f -59/-68/-50 -17/-23/-50 -24/-31/-50 
f -24/-31/-49 -17/-23/-49 -27/-34/-49 
f -61/-70/-48 -86/-102/-48 -62/-71/-48 
f -61/-70/-47 -62/-71/-47 -17/-23/-47 
usemtl 02___Default
s 1
f -17/-23/-46 -62/-71/-140 -63/-72/-142 
f -17/-23/-46 -63/-72/-142 -27/-34/-45 
f -27/-34/-45 -63/-72/-142 -65/-75/-143 
usemtl _crayfishdiffuse
s off
f -16/-22/-44 -15/-21/-44 -14/-20/-44 
f -15/-21/-43 -13/-19/-43 -12/-18/-43 
f -15/-21/-42 -12/-18/-42 -14/-20/-42 
f -14/-20/-41 -12/-18/-41 -11/-17/-41 
f -13/-19/-40 -45/-54/-40 -46/-55/-40 
f -13/-19/-39 -46/-55/-39 -12/-18/-39 
f -12/-18/-38 -46/-55/-38 -47/-56/-38 
f -12/-18/-37 -47/-56/-37 -11/-17/-37 
f -11/-17/-36 -47/-56/-36 -53/-62/-36 
f -16/-16/-35 -10/-15/-35 -15/-14/-35 
f -10/-15/-34 -9/-13/-34 -8/-12/-34 
f -10/-15/-33 -8/-12/-33 -15/-14/-33 
f -15/-21/-32 -8/-11/-32 -13/-19/-32 
f -9/-13/-31 -37/-44/-31 -38/-45/-31 
f -9/-13/-30 -38/-45/-30 -8/-12/-30 
usemtl 02___Default
s 1
f -8/-11/-29 -38/-47/-108 -39/-48/-110 
f -8/-11/-29 -39/-48/-110 -13/-19/-28 
f -13/-19/-28 -39/-48/-110 -45/-54/-111 
usemtl _crayfishdiffuse
f -16/-10/-27 -7/-9/-26 -10/-15/-25 
f -7/-9/-26 -6/-8/-24 -5/-7/-23 
f -7/-9/-26 -5/-7/-23 -10/-15/-25 
s off
f -10/-15/-22 -5/-7/-22 -9/-13/-22 
f -6/-8/-21 -29/-36/-21 -30/-37/-21 
f -6/-8/-20 -30/-37/-20 -5/-7/-20 
f -5/-7/-19 -30/-37/-19 -31/-38/-19 
f -5/-7/-18 -31/-38/-18 -9/-13/-18 
f -9/-13/-17 -31/-38/-17 -37/-44/-17 
usemtl 02___Default
s 1
f -16/-6/-27 -4/-5/-16 -7/-9/-26 
s off
f -4/-5/-15 -3/-4/-15 -2/-3/-15 
s 1
f -4/-5/-16 -2/-3/-14 -7/-9/-26 
usemtl _crayfishdiffuse
f -7/-9/-26 -2/-3/-14 -6/-8/-24 
s off
f -3/-4/-13 -56/-65/-13 -22/-29/-13 
f -3/-4/-12 -22/-29/-12 -2/-3/-12 
f -2/-3/-11 -22/-29/-11 -23/-30/-11 
f -2/-3/-10 -23/-30/-10 -6/-8/-10 
f -6/-8/-9 -23/-30/-9 -29/-36/-9 
usemtl 02___Default
f -16/-2/-8 -14/-20/-8 -4/-5/-8 
usemtl _crayfishdiffuse
f -14/-20/-7 -11/-17/-7 -1/-1/-7 
usemtl 02___Default
f -14/-20/-6 -1/-1/-6 -4/-5/-6 
f -4/-5/-5 -1/-1/-5 -3/-4/-5 
usemtl _crayfishdiffuse
s 1
f -11/-17/-4 -53/-62/-127 -54/-63/-129 
f -11/-17/-4 -54/-63/-129 -1/-1/-3 
f -1/-1/-3 -54/-63/-129 -55/-64/-130 
s off
f -1/-1/-2 -55/-64/-2 -3/-4/-2 
f -3/-4/-1 -55/-64/-1 -56/-65/-1 
# 0 polygons - 180 triangles

